<?xml version="1.0" encoding="UTF-8" standalone="no"?>
<svg
   viewBox="0 0 200 200"
   width="200"
   height="200"
   role="img"
   aria-label="Arcadonia State Health Department seal"
   version="1.1"
   id="svg3"
   sodipodi:docname="ahd-seal.svg"
   inkscape:version="1.3.2 (091e20e, 2023-11-25)"
   xmlns:inkscape="http://www.inkscape.org/namespaces/inkscape"
   xmlns:sodipodi="http://sodipodi.sourceforge.net/DTD/sodipodi-0.dtd"
   xmlns="http://www.w3.org/2000/svg"
   xmlns:svg="http://www.w3.org/2000/svg">
  <sodipodi:namedview
     id="namedview3"
     pagecolor="#ffffff"
     bordercolor="#000000"
     borderopacity="0.25"
     inkscape:showpageshadow="2"
     inkscape:pageopacity="0.0"
     inkscape:pagecheckerboard="0"
     inkscape:deskcolor="#d1d1d1"
     inkscape:zoom="3.015"
     inkscape:cx="100"
     inkscape:cy="100.16584"
     inkscape:window-width="1392"
     inkscape:window-height="1021"
     inkscape:window-x="0"
     inkscape:window-y="31"
     inkscape:window-maximized="0"
     inkscape:current-layer="svg3" />
  <defs
     id="defs1">
    <path
       id="ahd-top-arc"
       d="M 34 100 A 66 66 0 0 1 166 100"
       fill="none" />
    <path
       id="ahd-bottom-arc"
       d="M 28 100 A 72 72 0 0 0 172 100"
       fill="none" />
  </defs>
  <circle
     cx="100"
     cy="100"
     r="92"
     fill="none"
     stroke="#1f4d2e"
     stroke-width="3"
     id="circle1" />
  <circle
     cx="100"
     cy="100"
     r="78"
     fill="none"
     stroke="#1f4d2e"
     stroke-width="0.8"
     id="circle2" />
  <g fill="#1f4d2e" id="text2" aria-hidden="true"><path d="M7 0V73L47 81Q66 85 76.0 96.0Q86 107 96 135L300 701H461L665 131Q676 103 684.0 93.0Q692 83 712 79L747 72V0H424V73L471 79Q489 82 493.5 94.0Q498 106 490 130L463 212H226L199 134Q192 113 194.0 98.0Q196 83 224 78L268 71V0ZM253 293H439L351 571H347Z" transform="translate(48.4874 58.7392) rotate(-51.3058) scale(0.010800 -0.010800)"/><path d="M601 -14Q555 -14 524.0 1.0Q493 16 472.0 45.0Q451 74 437 116L400 235Q391 258 382.5 275.5Q374 293 360.0 303.0Q346 313 323 313Q314 313 306.0 312.5Q298 312 291 311V130Q291 107 297.0 95.0Q303 83 327 78L374 71V0H49V71L92 79Q111 82 117.0 91.5Q123 101 123 130V576Q123 600 117.0 610.0Q111 620 90 623L49 630V701H353Q414 701 465.5 691.5Q517 682 554.5 661.0Q592 640 612.5 606.5Q633 573 633 524Q633 488 619.0 460.5Q605 433 582.5 412.5Q560 392 533.0 378.0Q506 364 480.0 355.5Q454 347 434 344V340Q490 331 522.0 309.5Q554 288 570 242L596 175Q609 144 618.5 123.5Q628 103 641.0 93.0Q654 83 675 83Q685 83 695.0 85.0Q705 87 718 90L732 30Q710 11 677.0 -1.5Q644 -14 601 -14ZM331 384Q372 384 399.5 398.5Q427 413 441.5 441.5Q456 470 456 509Q456 549 440.5 573.0Q425 597 397.5 608.0Q370 619 333 619H292V385Q304 384 314.0 384.0Q324 384 331 384Z" transform="translate(54.3243 52.3583) rotate(-43.7931) scale(0.010800 -0.010800)"/><path d="M382 -14Q279 -14 202.5 29.5Q126 73 84.0 154.0Q42 235 42 349Q42 431 66.0 498.5Q90 566 134.5 614.5Q179 663 241.5 689.0Q304 715 381 715Q431 715 470.5 700.5Q510 686 541 660L552 716H617L656 471L575 455Q555 515 528.5 551.0Q502 587 468.5 603.0Q435 619 393 619Q334 619 295.0 589.5Q256 560 236.5 503.5Q217 447 217 366Q217 295 233.0 244.5Q249 194 277.0 161.5Q305 129 342.0 114.0Q379 99 420 99Q463 99 498.5 110.5Q534 122 562.0 143.0Q590 164 611 189L667 125Q649 99 622.0 74.5Q595 50 559.0 30.0Q523 10 478.5 -2.0Q434 -14 382 -14Z" transform="translate(60.8496 46.8657) rotate(-36.3835) scale(0.010800 -0.010800)"/><path d="M7 0V73L47 81Q66 85 76.0 96.0Q86 107 96 135L300 701H461L665 131Q676 103 684.0 93.0Q692 83 712 79L747 72V0H424V73L471 79Q489 82 493.5 94.0Q498 106 490 130L463 212H226L199 134Q192 113 194.0 98.0Q196 83 224 78L268 71V0ZM253 293H439L351 571H347Z" transform="translate(67.6986 42.4446) rotate(-29.3021) scale(0.010800 -0.010800)"/><path d="M49 0V71L92 79Q111 82 117.0 91.5Q123 101 123 130V576Q123 601 116.5 610.5Q110 620 90 623L49 630V701H370Q430 701 484.5 690.0Q539 679 585.0 655.5Q631 632 664.5 593.0Q698 554 717.0 499.5Q736 445 736 371Q736 281 709.5 212.0Q683 143 630.5 95.5Q578 48 500.0 24.0Q422 0 319 0ZM348 91Q405 91 445.0 107.0Q485 123 510.5 157.0Q536 191 548.0 242.5Q560 294 560 364Q560 448 536.5 502.5Q513 557 468.0 583.5Q423 610 358 610H290V95Q302 93 317.5 92.0Q333 91 348 91Z" transform="translate(75.5010 38.7154) rotate(-21.7894) scale(0.010800 -0.010800)"/><path d="M383 -14Q272 -14 196.0 31.0Q120 76 81.0 156.0Q42 236 42 338Q42 458 86.5 542.0Q131 626 211.5 670.5Q292 715 400 715Q501 715 576.0 674.0Q651 633 692.5 555.5Q734 478 734 367Q734 286 711.0 216.5Q688 147 643.5 95.0Q599 43 533.5 14.5Q468 -14 383 -14ZM396 84Q435 84 465.5 98.5Q496 113 516.0 144.5Q536 176 546.5 227.0Q557 278 557 350Q557 417 545.5 467.0Q534 517 512.0 551.0Q490 585 458.0 602.0Q426 619 384 619Q344 619 313.0 604.0Q282 589 260.5 557.0Q239 525 228.5 475.5Q218 426 218 358Q218 291 229.5 240.0Q241 189 263.5 154.0Q286 119 319.0 101.5Q352 84 396 84Z" transform="translate(83.9649 35.9775) rotate(-14.0611) scale(0.010800 -0.010800)"/><path d="M49 0V71L92 79Q110 82 116.5 92.0Q123 102 123 130V575Q123 601 116.5 610.5Q110 620 90 623L49 630V701H305L602 205L604 209V575Q604 600 597.5 609.5Q591 619 571 622L531 630V701H790V630L748 623Q730 620 723.5 610.0Q717 600 717 572V0H544L238 497L236 493V126Q236 99 242.5 91.0Q249 83 268 79L309 71V0Z" transform="translate(92.7093 34.4039) rotate(-6.3421) scale(0.010800 -0.010800)"/><path d="M49 0V71L94 79Q114 83 119.5 93.0Q125 103 125 129V575Q125 601 118.5 610.5Q112 620 91 623L49 630V701H368V630L322 622Q305 619 298.5 609.0Q292 599 292 572V126Q292 100 298.0 91.5Q304 83 324 79L368 71V0Z" transform="translate(102.2336 34.0378) rotate(1.9394) scale(0.010800 -0.010800)"/><path d="M7 0V73L47 81Q66 85 76.0 96.0Q86 107 96 135L300 701H461L665 131Q676 103 684.0 93.0Q692 83 712 79L747 72V0H424V73L471 79Q489 82 493.5 94.0Q498 106 490 130L463 212H226L199 134Q192 113 194.0 98.0Q196 83 224 78L268 71V0ZM253 293H439L351 571H347Z" transform="translate(107.2231 34.3964) rotate(6.2831) scale(0.010800 -0.010800)"/><path d="M325 -14Q271 -14 222.5 3.5Q174 21 141 48L127 -6H59L43 213L120 225Q132 191 150.0 164.0Q168 137 191.5 118.0Q215 99 243.5 89.0Q272 79 304 79Q340 79 363.5 89.0Q387 99 398.5 118.0Q410 137 410 162Q410 192 395.5 212.5Q381 233 348.5 249.0Q316 265 265 281Q220 295 182.0 312.5Q144 330 116.5 354.5Q89 379 73.5 415.0Q58 451 58 501Q58 529 66.5 558.5Q75 588 92.5 616.0Q110 644 138.5 666.5Q167 689 206.5 702.0Q246 715 299 715Q348 715 385.0 702.0Q422 689 453 665L466 715H529L551 500L474 485Q456 539 429.5 569.5Q403 600 372.0 613.0Q341 626 308 626Q266 626 239.0 604.5Q212 583 212 544Q212 515 227.5 495.5Q243 476 274.5 461.5Q306 447 352 432Q401 417 441.5 398.5Q482 380 511.5 355.0Q541 330 556.5 295.0Q572 260 572 210Q572 156 551.5 114.5Q531 73 496.0 44.0Q461 15 417.0 0.5Q373 -14 325 -14Z" transform="translate(118.3083 36.5902) rotate(16.1050) scale(0.010800 -0.010800)"/><path d="M187 0V71L257 81Q277 83 283.5 96.0Q290 109 290 132V618H254Q224 618 203.5 612.0Q183 606 168.0 589.5Q153 573 141.0 544.0Q129 515 117 469L24 488L57 701H690L722 487L629 469Q617 515 605.0 544.5Q593 574 578.0 590.0Q563 606 543.0 612.0Q523 618 495 618H457V130Q457 108 462.5 96.0Q468 84 491 81L560 71V0Z" transform="translate(125.0295 38.9302) rotate(22.2863) scale(0.010800 -0.010800)"/><path d="M7 0V73L47 81Q66 85 76.0 96.0Q86 107 96 135L300 701H461L665 131Q676 103 684.0 93.0Q692 83 712 79L747 72V0H424V73L471 79Q489 82 493.5 94.0Q498 106 490 130L463 212H226L199 134Q192 113 194.0 98.0Q196 83 224 78L268 71V0ZM253 293H439L351 571H347Z" transform="translate(132.7149 42.6787) rotate(29.7146) scale(0.010800 -0.010800)"/><path d="M187 0V71L257 81Q277 83 283.5 96.0Q290 109 290 132V618H254Q224 618 203.5 612.0Q183 606 168.0 589.5Q153 573 141.0 544.0Q129 515 117 469L24 488L57 701H690L722 487L629 469Q617 515 605.0 544.5Q593 574 578.0 590.0Q563 606 543.0 612.0Q523 618 495 618H457V130Q457 108 462.5 96.0Q468 84 491 81L560 71V0Z" transform="translate(139.9286 47.4481) rotate(37.2273) scale(0.010800 -0.010800)"/><path d="M49 0V71L92 79Q111 82 117.0 91.5Q123 101 123 130V576Q123 602 116.5 611.0Q110 620 90 623L49 630V701H575L610 516L521 501Q510 536 499.5 559.0Q489 582 474.5 595.0Q460 608 439.0 613.5Q418 619 386 619H290V397H347Q372 397 384.5 402.0Q397 407 404.0 423.0Q411 439 418 471L485 477V244L418 234Q413 267 406.5 284.0Q400 301 386.0 306.5Q372 312 346 312H290V83H404Q437 83 458.5 89.5Q480 96 494.0 110.0Q508 124 517.5 149.5Q527 175 537 213H627L601 0Z" transform="translate(146.3877 53.0513) rotate(44.6556) scale(0.010800 -0.010800)"/></g>
  <g fill="#1f4d2e" id="text3" aria-hidden="true"><path d="M49 0V71L92 79Q111 82 117.0 91.5Q123 101 123 130V575Q123 601 116.5 610.5Q110 620 90 623L49 630V701H363V630L320 622Q302 619 296.0 608.5Q290 598 290 571V405H552V575Q552 600 545.5 609.5Q539 619 519 622L479 630V701H792V630L750 623Q731 620 725.0 610.0Q719 600 719 572V126Q719 100 725.5 91.5Q732 83 752 79L792 71V0H479V71L521 79Q539 82 545.5 91.5Q552 101 552 130V310H290V126Q290 99 296.5 91.0Q303 83 322 79L363 71V0Z" transform="translate(40.2452 140.1667) rotate(56.0913) scale(0.010800 -0.010800)"/><path d="M49 0V71L92 79Q111 82 117.0 91.5Q123 101 123 130V576Q123 602 116.5 611.0Q110 620 90 623L49 630V701H575L610 516L521 501Q510 536 499.5 559.0Q489 582 474.5 595.0Q460 608 439.0 613.5Q418 619 386 619H290V397H347Q372 397 384.5 402.0Q397 407 404.0 423.0Q411 439 418 471L485 477V244L418 234Q413 267 406.5 284.0Q400 301 386.0 306.5Q372 312 346 312H290V83H404Q437 83 458.5 89.5Q480 96 494.0 110.0Q508 124 517.5 149.5Q527 175 537 213H627L601 0Z" transform="translate(46.1039 147.7411) rotate(48.4655) scale(0.010800 -0.010800)"/><path d="M7 0V73L47 81Q66 85 76.0 96.0Q86 107 96 135L300 701H461L665 131Q676 103 684.0 93.0Q692 83 712 79L747 72V0H424V73L471 79Q489 82 493.5 94.0Q498 106 490 130L463 212H226L199 134Q192 113 194.0 98.0Q196 83 224 78L268 71V0ZM253 293H439L351 571H347Z" transform="translate(51.4785 153.1945) rotate(42.3696) scale(0.010800 -0.010800)"/><path d="M49 0V71L93 79Q111 82 117.0 91.5Q123 101 123 130V576Q123 601 116.0 611.0Q109 621 90 623L49 630V701H378V630L324 622Q304 619 297.0 610.0Q290 601 290 576V86H376Q406 86 427.0 93.5Q448 101 463.5 118.0Q479 135 491.0 165.0Q503 195 517 241H608L582 0Z" transform="translate(58.2068 158.6288) rotate(35.4830) scale(0.010800 -0.010800)"/><path d="M187 0V71L257 81Q277 83 283.5 96.0Q290 109 290 132V618H254Q224 618 203.5 612.0Q183 606 168.0 589.5Q153 573 141.0 544.0Q129 515 117 469L24 488L57 701H690L722 487L629 469Q617 515 605.0 544.5Q593 574 578.0 590.0Q563 606 543.0 612.0Q523 618 495 618H457V130Q457 108 462.5 96.0Q468 84 491 81L560 71V0Z" transform="translate(64.5281 162.6558) rotate(29.5159) scale(0.010800 -0.010800)"/><path d="M49 0V71L92 79Q111 82 117.0 91.5Q123 101 123 130V575Q123 601 116.5 610.5Q110 620 90 623L49 630V701H363V630L320 622Q302 619 296.0 608.5Q290 598 290 571V405H552V575Q552 600 545.5 609.5Q539 619 519 622L479 630V701H792V630L750 623Q731 620 725.0 610.0Q719 600 719 572V126Q719 100 725.5 91.5Q732 83 752 79L792 71V0H479V71L521 79Q539 82 545.5 91.5Q552 101 552 130V310H290V126Q290 99 296.5 91.0Q303 83 322 79L363 71V0Z" transform="translate(72.2071 166.4195) rotate(22.7066) scale(0.010800 -0.010800)"/><path d="M49 0V71L92 79Q111 82 117.0 91.5Q123 101 123 130V576Q123 601 116.5 610.5Q110 620 90 623L49 630V701H370Q430 701 484.5 690.0Q539 679 585.0 655.5Q631 632 664.5 593.0Q698 554 717.0 499.5Q736 445 736 371Q736 281 709.5 212.0Q683 143 630.5 95.5Q578 48 500.0 24.0Q422 0 319 0ZM348 91Q405 91 445.0 107.0Q485 123 510.5 157.0Q536 191 548.0 242.5Q560 294 560 364Q560 448 536.5 502.5Q513 557 468.0 583.5Q423 610 358 610H290V95Q302 93 317.5 92.0Q333 91 348 91Z" transform="translate(83.8475 170.1648) rotate(12.9641) scale(0.010800 -0.010800)"/><path d="M49 0V71L92 79Q111 82 117.0 91.5Q123 101 123 130V576Q123 602 116.5 611.0Q110 620 90 623L49 630V701H575L610 516L521 501Q510 536 499.5 559.0Q489 582 474.5 595.0Q460 608 439.0 613.5Q418 619 386 619H290V397H347Q372 397 384.5 402.0Q397 407 404.0 423.0Q411 439 418 471L485 477V244L418 234Q413 267 406.5 284.0Q400 301 386.0 306.5Q372 312 346 312H290V83H404Q437 83 458.5 89.5Q480 96 494.0 110.0Q508 124 517.5 149.5Q527 175 537 213H627L601 0Z" transform="translate(92.6242 171.6212) rotate(5.8798) scale(0.010800 -0.010800)"/><path d="M49 0V71L92 79Q111 82 117.0 91.5Q123 101 123 130V576Q123 600 117.0 610.0Q111 620 90 623L49 630V701H351Q400 701 443.0 694.5Q486 688 520.5 673.5Q555 659 579.5 635.0Q604 611 617.5 576.5Q631 542 631 495Q631 443 614.5 404.0Q598 365 571.0 337.5Q544 310 510.5 293.5Q477 277 441.0 269.0Q405 261 373 261Q347 261 323.5 262.5Q300 264 290 266V131Q290 104 296.5 93.0Q303 82 329 79L399 71V0ZM335 350Q397 350 428.5 385.5Q460 421 460 492Q460 536 446.0 564.0Q432 592 404.0 605.5Q376 619 333 619H290V353Q298 352 309.5 351.0Q321 350 335 350Z" transform="translate(100.2716 171.9995) rotate(-0.2161) scale(0.010800 -0.010800)"/><path d="M7 0V73L47 81Q66 85 76.0 96.0Q86 107 96 135L300 701H461L665 131Q676 103 684.0 93.0Q692 83 712 79L747 72V0H424V73L471 79Q489 82 493.5 94.0Q498 106 490 130L463 212H226L199 134Q192 113 194.0 98.0Q196 83 224 78L268 71V0ZM253 293H439L351 571H347Z" transform="translate(107.8086 171.5753) rotate(-6.2261) scale(0.010800 -0.010800)"/><path d="M601 -14Q555 -14 524.0 1.0Q493 16 472.0 45.0Q451 74 437 116L400 235Q391 258 382.5 275.5Q374 293 360.0 303.0Q346 313 323 313Q314 313 306.0 312.5Q298 312 291 311V130Q291 107 297.0 95.0Q303 83 327 78L374 71V0H49V71L92 79Q111 82 117.0 91.5Q123 101 123 130V576Q123 600 117.0 610.0Q111 620 90 623L49 630V701H353Q414 701 465.5 691.5Q517 682 554.5 661.0Q592 640 612.5 606.5Q633 573 633 524Q633 488 619.0 460.5Q605 433 582.5 412.5Q560 392 533.0 378.0Q506 364 480.0 355.5Q454 347 434 344V340Q490 331 522.0 309.5Q554 288 570 242L596 175Q609 144 618.5 123.5Q628 103 641.0 93.0Q654 83 675 83Q685 83 695.0 85.0Q705 87 718 90L732 30Q710 11 677.0 -1.5Q644 -14 601 -14ZM331 384Q372 384 399.5 398.5Q427 413 441.5 441.5Q456 470 456 509Q456 549 440.5 573.0Q425 597 397.5 608.0Q370 619 333 619H292V385Q304 384 314.0 384.0Q324 384 331 384Z" transform="translate(116.3345 170.1226) rotate(-13.1128) scale(0.010800 -0.010800)"/><path d="M187 0V71L257 81Q277 83 283.5 96.0Q290 109 290 132V618H254Q224 618 203.5 612.0Q183 606 168.0 589.5Q153 573 141.0 544.0Q129 515 117 469L24 488L57 701H690L722 487L629 469Q617 515 605.0 544.5Q593 574 578.0 590.0Q563 606 543.0 612.0Q523 618 495 618H457V130Q457 108 462.5 96.0Q468 84 491 81L560 71V0Z" transform="translate(124.5131 167.6987) rotate(-19.9049) scale(0.010800 -0.010800)"/><path d="M42 0V71L84 78Q104 82 109.5 91.5Q115 101 116 123L144 580Q145 603 139.0 611.5Q133 620 112 623L69 630V701H339L493 294L497 299L662 701H916V630L869 623Q853 621 846.0 613.5Q839 606 841 579L871 126Q873 102 878.0 92.5Q883 83 904 79L947 71V0H629V71L683 79Q699 82 705.0 90.5Q711 99 709 121L682 523L680 527L512 113H411L244 527L242 523L219 126Q218 106 221.0 94.5Q224 83 248 79L297 71V0Z" transform="translate(132.3669 164.3147) rotate(-26.7142) scale(0.010800 -0.010800)"/><path d="M49 0V71L92 79Q111 82 117.0 91.5Q123 101 123 130V576Q123 602 116.5 611.0Q110 620 90 623L49 630V701H575L610 516L521 501Q510 536 499.5 559.0Q489 582 474.5 595.0Q460 608 439.0 613.5Q418 619 386 619H290V397H347Q372 397 384.5 402.0Q397 407 404.0 423.0Q411 439 418 471L485 477V244L418 234Q413 267 406.5 284.0Q400 301 386.0 306.5Q372 312 346 312H290V83H404Q437 83 458.5 89.5Q480 96 494.0 110.0Q508 124 517.5 149.5Q527 175 537 213H627L601 0Z" transform="translate(141.9074 158.5471) rotate(-35.5947) scale(0.010800 -0.010800)"/><path d="M49 0V71L92 79Q110 82 116.5 92.0Q123 102 123 130V575Q123 601 116.5 610.5Q110 620 90 623L49 630V701H305L602 205L604 209V575Q604 600 597.5 609.5Q591 619 571 622L531 630V701H790V630L748 623Q730 620 723.5 610.0Q717 600 717 572V0H544L238 497L236 493V126Q236 99 242.5 91.0Q249 83 268 79L309 71V0Z" transform="translate(147.8878 153.7658) rotate(-41.6906) scale(0.010800 -0.010800)"/><path d="M187 0V71L257 81Q277 83 283.5 96.0Q290 109 290 132V618H254Q224 618 203.5 612.0Q183 606 168.0 589.5Q153 573 141.0 544.0Q129 515 117 469L24 488L57 701H690L722 487L629 469Q617 515 605.0 544.5Q593 574 578.0 590.0Q563 606 543.0 612.0Q523 618 495 618H457V130Q457 108 462.5 96.0Q468 84 491 81L560 71V0Z" transform="translate(154.5709 146.9682) rotate(-49.2820) scale(0.010800 -0.010800)"/></g>
  <!-- Tree silhouette: "Blue Silhouette - Tree" (CC0), via Wikimedia Commons.
       https://commons.wikimedia.org/wiki/File:Blue_Silhouette_-_Tree.svg -->
  <g
     transform="matrix(0.21646039,0,0,0.2031675,55.143945,-74.361179)"
     fill="#1f4d2e"
     id="g3">
    <path
       d="m 92.52969,1046.7674 c 10.9884,-0.6928 71.6241,-2.4465 84.4808,-2.4433 h 10.7283 l 2.0989,-4.2011 c 4.1286,-8.2639 8.2316,-23.4653 10.4409,-38.6837 1.4406,-9.92309 1.1832,-13.23899 -1.4519,-18.69799 -2.0109,-4.1659 -8.7768,-10.3667 -16.3346,-14.9704 -22.5696,-13.74781 -40.7255,-27.59311 -60.488,-46.12681 -5.3075,-4.9775 -7.4576,-6.5154 -12.7924,-9.1507 -9.8388,-4.86 -16.1925,-10.2253 -23.217,-19.6051 -1.1533,-1.5401 -1.4275,-1.6178 -3.7343,-1.0587 -1.3692,0.3319 -5.7104,0.6481 -9.6469,0.7027 -15.5864,0.216 -30.3664,-6.1233 -41.7466,-17.9055 -12.7052,-13.1539 -18.6354,-28.1627 -18.6165,-47.1165 0.014,-13.3839 2.821,-23.7179 9.4871,-34.9199 7.6486,-12.8529 21.7839,-23.9109 34.9101,-27.3099 2.0015,-0.5183 3.7759,-1.0792 3.9432,-1.2465 0.1673,-0.1672 -0.041,-2.4425 -0.4625,-5.0561 -1.1213,-6.9514 -0.4422,-17.3372 1.5885,-24.2896 5.5858,-19.1243 19.8501,-33.2967 38.5927,-38.3442 9.0821,-2.4457 23.4262,-1.72 32.147,1.6265 0.7309,0.2804 1.3023,-0.5716 2.3813,-3.5512 4.9387,-13.638 14.9414,-26.7866 26.3348,-34.617 28.3574,-19.4893 64.4171,-15.7929 88.5578,9.0778 l 4.4055,4.5387 3.9967,-0.9757 c 2.1981,-0.5366 7.2175,-1.1337 11.154,-1.3267 12.8569,-0.6305 25.1661,3.0672 36.0394,10.8262 l 4.056,2.8943 9.9823,0.093 c 7.94064,0.074 10.94897,0.3564 14.70838,1.3804 23.14728,6.3052 40.06103,25.8545 44.53987,51.4803 1.07689,6.1616 0.8716,17.1464 -0.43758,23.4128 l -0.72856,3.4869 4.26857,5.6238 c 15.98837,21.0645 20.29721,48.4561 11.676,74.2249 -6.25253,18.6888 -19.87656,34.5498 -36.88718,42.9439 -8.07909,3.9867 -18.37197,6.8148 -24.87953,6.836 -3.01453,0.01 -3.62273,0.2643 -6.53507,2.7352 -5.5338,4.6949 -16.373,10.8769 -22.505,12.8353 -1.3693,0.4373 -3.1898,1.2689 -4.0455,1.848 -0.8558,0.5791 -6.4572,3.8114 -12.4477,7.1826 -14.7717,8.3132 -29.8496,18.0081 -38.7452,24.9124 -10.5516,8.1897 -13.3817,17.9625 -11.7084,40.43171 2.1064,28.28389 6.4093,47.14739 12.9903,56.94809 l 2.2986,3.4231 23.3812,0.3939 c 27.1526,0.4575 73.59162,1.8183 73.96999,2.1675 0.14258,0.1316 -59.09279,0.1986 -131.63409,0.149 -72.5414,-0.05 -128.3925,-0.3111 -124.1137,-0.5809 z m 104.0913,-80.76259 c -0.087,-0.79941 -2.5026,-4.71951 -5.3681,-8.71131 -6.2746,-8.7409 -15.6753,-23.0074 -17.7885,-26.9955 -1.2676,-2.3924 -1.9105,-2.9579 -3.7344,-3.285 -5.7734,-1.0353 -14.2423,-4.2253 -21.9358,-8.2626 -1.4384,-0.7547 4.5085,15.9952 7.1831,20.232 3.8648,6.1222 22.0216,19.7908 35.8496,26.98781 4.1177,2.1432 6.0245,2.1545 5.7941,0.035 z m 4.9053,-15.44571 c 0.655,-0.7918 0.8541,-3.6809 0.8541,-12.3958 0,-6.2498 -0.1404,-11.5037 -0.312,-11.6753 -0.1716,-0.1717 -1.8347,0.083 -3.6959,0.5657 -1.8611,0.4827 -5.567,1.0598 -8.2354,1.2823 -5.6207,0.4688 -5.4848,0 -2.3732,8.1561 2.1713,5.6901 5.0328,10.1672 8.2684,12.9367 2.7937,2.3914 4.2097,2.6826 5.494,1.1303 z m 39.6918,-12.0063 c 3.1122,-1.5877 9.0467,-7.4697 12.6956,-12.5831 3.1671,-4.4383 6.9096,-11.9046 6.5332,-13.0338 -0.1296,-0.3889 -2.6049,-1.3886 -5.5005,-2.2214 -2.8957,-0.8327 -7.6094,-2.7787 -10.475,-4.3243 l -5.2103,-2.8102 -1.7286,1.6562 c -1.708,1.6363 -1.7332,1.7731 -2.1036,11.4025 -0.2061,5.3605 -0.4996,12.0382 -0.652,14.8394 -0.2407,4.4221 -0.1117,5.3033 0.9795,6.6906 1.5076,1.9166 2.3427,1.9754 5.4617,0.3841 z m -93.9222,-4.5435 c -1.7418,-3.7529 -4.9755,-14.0119 -4.9755,-15.7848 0,-0.6891 -1.5123,-0.864 -7.4686,-0.864 -4.1077,0 -7.4686,0.1742 -7.4686,0.3873 0,1.239 20.1434,20.1514 21.4632,20.1514 0.1402,0 -0.5576,-1.7505 -1.5505,-3.8899 z m 119.1402,-7.5683 c 4.3638,-2.9262 15.4751,-11.6228 15.1696,-11.873 -0.1004,-0.082 -3.3378,-0.3086 -7.1943,-0.503 l -7.0116,-0.3533 -3.1551,4.6756 c -3.4076,5.0498 -5.6374,9.5127 -5.1482,10.3042 0.7211,1.1668 3.5262,0.3067 7.3396,-2.2505 z"
       fill-rule="evenodd"
       id="path3" />
  </g>
</svg>
