<?xml version="1.0" encoding="UTF-8" standalone="no"?>
<svg
   viewBox="0 0 289.87567 130.03552"
   width="289.87567"
   height="130.03552"
   role="img"
   aria-label="ASR — Arcadonia Health Department"
   version="1.1"
   id="svg2"
   sodipodi:docname="asr-wordmark.svg"
   inkscape:version="1.3.2 (091e20e, 2023-11-25)"
   xmlns:inkscape="http://www.inkscape.org/namespaces/inkscape"
   xmlns:sodipodi="http://sodipodi.sourceforge.net/DTD/sodipodi-0.dtd"
   xmlns="http://www.w3.org/2000/svg"
   xmlns:svg="http://www.w3.org/2000/svg">
  <defs
     id="defs2" />
  <sodipodi:namedview
     id="namedview2"
     pagecolor="#ffffff"
     bordercolor="#000000"
     borderopacity="0.25"
     inkscape:showpageshadow="2"
     inkscape:pageopacity="0.0"
     inkscape:pagecheckerboard="0"
     inkscape:deskcolor="#d1d1d1"
     inkscape:zoom="1.8766667"
     inkscape:cx="150"
     inkscape:cy="88.454707"
     inkscape:window-width="1392"
     inkscape:window-height="1021"
     inkscape:window-x="0"
     inkscape:window-y="31"
     inkscape:window-maximized="0"
     inkscape:current-layer="svg2" />
  <g fill="#1f4d2e" id="text1" aria-hidden="true"><path d="M425 707 607 56 692 45 686 0H420L426 45L507 57L461 232H221L160 57L251 45L245 0H12L18 45L97 57L327 696ZM240 288H446L359 621H356Z" transform="translate(7.0000 18.0000) scale(0.018000 -0.018000)"/><path d="M109 417Q110 438 104.0 447.5Q98 457 82 457Q72 457 58.0 452.5Q44 448 23 439L6 488Q17 494 36.5 502.0Q56 510 78.5 515.5Q101 521 121 521Q164 521 180.0 495.0Q196 469 191 419L177 275L183 274L238 403Q256 448 273.0 474.0Q290 500 309.0 510.5Q328 521 354 521Q380 521 397.0 511.5Q414 502 422.5 486.5Q431 471 431 453Q431 432 419.0 413.5Q407 395 384 385L361 411Q350 425 343.0 429.0Q336 433 327 433Q320 433 314.0 430.0Q308 427 301.5 418.0Q295 409 286.5 392.0Q278 375 265 346Q232 274 214.0 231.0Q196 188 187.5 163.0Q179 138 176.0 121.0Q173 104 171 82L163 0H89Z" transform="translate(19.4380 18.0000) scale(0.018000 -0.018000)"/><path d="M291 521Q335 521 369.0 505.5Q403 490 423.0 462.0Q443 434 443 394Q443 366 427.0 348.0Q411 330 382 330Q361 330 344.5 342.0Q328 354 320 372L341 396Q361 418 357.0 434.0Q353 450 334.0 458.0Q315 466 289 466Q255 466 227.0 451.5Q199 437 179.0 407.5Q159 378 148.5 333.0Q138 288 138 228Q138 179 151.5 139.0Q165 99 192.5 75.0Q220 51 261 51Q284 51 307.0 59.5Q330 68 353.5 85.5Q377 103 400 128L434 93Q425 81 408.5 63.0Q392 45 367.5 27.5Q343 10 312.0 -2.0Q281 -14 243 -14Q180 -14 136.0 17.0Q92 48 69.5 102.5Q47 157 47 225Q47 290 64.0 344.0Q81 398 113.5 437.5Q146 477 191.0 499.0Q236 521 291 521Z" transform="translate(27.7900 18.0000) scale(0.018000 -0.018000)"/><path d="M466 89Q465 64 470.5 55.0Q476 46 491 46Q501 46 514.0 52.5Q527 59 541 71L565 34Q554 24 536.0 12.5Q518 1 497.5 -6.5Q477 -14 456 -14Q431 -14 414.5 -3.0Q398 8 391.5 30.5Q385 53 388 86L405 275L398 276L376 193Q363 143 347.5 104.5Q332 66 312.0 39.5Q292 13 265.5 -0.5Q239 -14 203 -14Q150 -14 115.5 14.0Q81 42 64.5 90.5Q48 139 48 201Q48 272 65.0 330.5Q82 389 113.0 432.0Q144 475 186.0 498.0Q228 521 278 521Q313 521 343.5 513.0Q374 505 392 496L462 519L479 511ZM216 54Q240 54 257.5 64.0Q275 74 290.0 102.0Q305 130 322.0 181.0Q339 232 362 316L395 437Q376 447 345.0 454.0Q314 461 287 461Q254 461 227.0 442.5Q200 424 180.0 390.0Q160 356 149.5 309.0Q139 262 139 205Q139 153 147.0 119.5Q155 86 172.0 70.0Q189 54 216 54Z" transform="translate(36.5380 18.0000) scale(0.018000 -0.018000)"/><path d="M465 85Q464 63 469.5 54.0Q475 45 491 45Q505 45 519.0 52.5Q533 60 548 70L571 37Q560 27 540.5 15.0Q521 3 499.0 -5.5Q477 -14 456 -14Q413 -14 398.5 14.5Q384 43 388 86L404 276L397 277L374 189Q362 144 348.0 106.5Q334 69 314.0 42.0Q294 15 266.0 0.5Q238 -14 198 -14Q158 -14 129.5 3.5Q101 21 82.5 51.5Q64 82 55.5 121.5Q47 161 47 206Q47 276 63.5 334.0Q80 392 110.5 434.0Q141 476 184.0 498.5Q227 521 280 521Q310 521 342.0 513.0Q374 505 392 496L400 699L307 720L313 767H469L485 756ZM214 54Q238 54 256.0 65.0Q274 76 289.5 104.0Q305 132 322.5 183.0Q340 234 362 315L395 438Q383 445 363.5 450.0Q344 455 323.5 458.0Q303 461 288 461Q253 461 225.0 442.5Q197 424 177.5 390.0Q158 356 147.5 310.5Q137 265 137 211Q137 133 156.5 93.5Q176 54 214 54Z" transform="translate(46.8160 18.0000) scale(0.018000 -0.018000)"/><path d="M254 -14Q188 -14 142.0 17.0Q96 48 72.0 104.0Q48 160 48 235Q48 291 61.0 342.5Q74 394 101.5 434.0Q129 474 174.0 497.5Q219 521 283 521Q349 521 395.5 490.5Q442 460 466.5 404.5Q491 349 491 274Q491 217 478.0 165.0Q465 113 436.5 73.0Q408 33 363.0 9.5Q318 -14 254 -14ZM260 44Q314 44 343.5 76.5Q373 109 385.0 162.0Q397 215 397 275Q397 331 385.5 373.0Q374 415 347.5 439.5Q321 464 275 464Q235 464 209.0 445.0Q183 426 168.5 393.5Q154 361 148.5 319.0Q143 277 143 231Q143 176 155.5 133.5Q168 91 194.0 67.5Q220 44 260 44Z" transform="translate(57.1300 18.0000) scale(0.018000 -0.018000)"/><path d="M582 35Q571 25 551.0 13.5Q531 2 508.5 -6.0Q486 -14 465 -14Q426 -14 407.0 7.0Q388 28 392 69L417 355Q422 408 412.5 428.0Q403 448 378 448Q356 448 341.5 435.0Q327 422 316.0 396.5Q305 371 291 331L174 0H93L109 417Q110 439 104.0 448.0Q98 457 82 457Q72 457 58.0 452.5Q44 448 23 439L6 488Q17 494 36.5 502.0Q56 510 78.5 515.5Q101 521 121 521Q164 521 180.0 495.0Q196 469 191 419L166 152L173 150L246 367Q264 420 284.5 454.0Q305 488 333.0 504.5Q361 521 399 521Q444 521 468.0 502.0Q492 483 499.5 444.5Q507 406 502 348L480 89Q478 65 482.5 55.5Q487 46 503 46Q514 46 529.5 52.5Q545 59 559 70Z" transform="translate(66.8320 18.0000) scale(0.018000 -0.018000)"/><path d="M119 417Q121 440 116.0 449.0Q111 458 94 458Q81 458 66.5 454.5Q52 451 31 442L15 486Q34 497 66.0 509.0Q98 521 131 521Q158 521 175.5 509.0Q193 497 200.0 472.5Q207 448 204 409L181 89Q180 67 184.0 56.5Q188 46 204 46Q215 46 230.5 54.5Q246 63 266 80L291 43Q281 33 263.0 19.5Q245 6 221.0 -4.0Q197 -14 168 -14Q137 -14 120.0 -1.5Q103 11 97.0 32.0Q91 53 93 77ZM92 686Q92 715 110.0 734.0Q128 753 157 753Q176 753 190.5 744.5Q205 736 213.0 721.5Q221 707 221 687Q221 658 203.5 639.0Q186 620 157 620Q128 620 110.0 638.5Q92 657 92 686Z" transform="translate(77.5600 18.0000) scale(0.018000 -0.018000)"/><path d="M466 89Q465 64 470.5 55.0Q476 46 491 46Q501 46 514.0 52.5Q527 59 541 71L565 34Q554 24 536.0 12.5Q518 1 497.5 -6.5Q477 -14 456 -14Q431 -14 414.5 -3.0Q398 8 391.5 30.5Q385 53 388 86L405 275L398 276L376 193Q363 143 347.5 104.5Q332 66 312.0 39.5Q292 13 265.5 -0.5Q239 -14 203 -14Q150 -14 115.5 14.0Q81 42 64.5 90.5Q48 139 48 201Q48 272 65.0 330.5Q82 389 113.0 432.0Q144 475 186.0 498.0Q228 521 278 521Q313 521 343.5 513.0Q374 505 392 496L462 519L479 511ZM216 54Q240 54 257.5 64.0Q275 74 290.0 102.0Q305 130 322.0 181.0Q339 232 362 316L395 437Q376 447 345.0 454.0Q314 461 287 461Q254 461 227.0 442.5Q200 424 180.0 390.0Q160 356 149.5 309.0Q139 262 139 205Q139 153 147.0 119.5Q155 86 172.0 70.0Q189 54 216 54Z" transform="translate(82.9240 18.0000) scale(0.018000 -0.018000)"/><path d="M552 329H238L228 58L323 45L317 0H52L58 45L140 58L163 639L77 656L83 701H341L335 656L250 639L240 391H554L565 639L479 656L485 701H742L736 656L651 639L629 58L724 45L718 0H453L459 45L541 58Z" transform="translate(96.6220 18.0000) scale(0.018000 -0.018000)"/><path d="M287 521Q362 521 397.0 486.5Q432 452 432 395Q432 353 415.5 324.0Q399 295 371.5 276.5Q344 258 312.0 246.5Q280 235 249 227L138 200Q141 166 155.0 131.5Q169 97 196.5 74.0Q224 51 265 51Q287 51 307.5 57.5Q328 64 349.5 78.5Q371 93 396 116L429 80Q420 69 404.5 53.5Q389 38 365.5 22.5Q342 7 312.0 -3.5Q282 -14 245 -14Q181 -14 136.5 17.0Q92 48 69.5 102.5Q47 157 47 225Q47 311 77.0 378.0Q107 445 161.0 483.0Q215 521 287 521ZM343 392Q343 412 337.0 428.5Q331 445 317.0 455.5Q303 466 280 466Q239 466 208.0 441.0Q177 416 159.5 369.5Q142 323 138 256L239 282Q274 291 297.0 304.0Q320 317 331.5 338.0Q343 359 343 392Z" transform="translate(110.3020 18.0000) scale(0.018000 -0.018000)"/><path d="M466 89Q465 64 470.5 55.0Q476 46 491 46Q501 46 514.0 52.5Q527 59 541 71L565 34Q554 24 536.0 12.5Q518 1 497.5 -6.5Q477 -14 456 -14Q431 -14 414.5 -3.0Q398 8 391.5 30.5Q385 53 388 86L405 275L398 276L376 193Q363 143 347.5 104.5Q332 66 312.0 39.5Q292 13 265.5 -0.5Q239 -14 203 -14Q150 -14 115.5 14.0Q81 42 64.5 90.5Q48 139 48 201Q48 272 65.0 330.5Q82 389 113.0 432.0Q144 475 186.0 498.0Q228 521 278 521Q313 521 343.5 513.0Q374 505 392 496L462 519L479 511ZM216 54Q240 54 257.5 64.0Q275 74 290.0 102.0Q305 130 322.0 181.0Q339 232 362 316L395 437Q376 447 345.0 454.0Q314 461 287 461Q254 461 227.0 442.5Q200 424 180.0 390.0Q160 356 149.5 309.0Q139 262 139 205Q139 153 147.0 119.5Q155 86 172.0 70.0Q189 54 216 54Z" transform="translate(118.8880 18.0000) scale(0.018000 -0.018000)"/><path d="M110 699 17 720 23 767H178L194 756L171 89Q170 67 174.5 57.0Q179 47 196 47Q207 47 222.0 55.5Q237 64 256 80L281 43Q271 33 253.5 19.5Q236 6 212.5 -4.0Q189 -14 160 -14Q128 -14 111.0 -2.5Q94 9 88.0 29.5Q82 50 83 77Z" transform="translate(129.1660 18.0000) scale(0.018000 -0.018000)"/><path d="M44 501 120 509 161 673H216L206 507H362L358 449H203L188 136Q186 94 202.0 72.5Q218 51 253 51Q282 51 306.5 66.5Q331 82 354 104L386 70Q369 47 345.0 27.5Q321 8 293.0 -3.0Q265 -14 232 -14Q159 -14 129.0 26.0Q99 66 102 133L116 449H36Z" transform="translate(134.2420 18.0000) scale(0.018000 -0.018000)"/><path d="M573 38Q564 30 550.5 21.5Q537 13 521.0 5.5Q505 -2 488.0 -6.5Q471 -11 456 -11Q426 -11 409.5 -0.5Q393 10 387.0 29.0Q381 48 383 72L408 355Q413 408 403.5 428.0Q394 448 369 448Q347 448 333.0 434.5Q319 421 308.0 395.5Q297 370 283 332L165 0H84L110 699L17 720L23 767H179L195 756L181 409L157 152L164 150L237 368Q251 408 265.5 436.5Q280 465 298.5 484.0Q317 503 339.5 512.0Q362 521 390 521Q436 521 460.0 501.0Q484 481 491.0 442.5Q498 404 493 348L471 92Q469 68 473.5 58.5Q478 49 494 49Q505 49 520.5 55.5Q536 62 550 73Z" transform="translate(141.4780 18.0000) scale(0.018000 -0.018000)"/><path d="M52 0 57 44 146 59 171 639 84 656 90 701H357Q465 701 540.5 665.0Q616 629 655.5 560.0Q695 491 695 392Q695 268 645.0 180.5Q595 93 500.0 46.5Q405 0 270 0ZM234 54H262Q371 54 445.5 92.0Q520 130 559.0 203.5Q598 277 598 383Q598 468 568.5 526.5Q539 585 482.5 616.5Q426 648 346 648H257Z" transform="translate(155.4640 18.0000) scale(0.018000 -0.018000)"/><path d="M287 521Q362 521 397.0 486.5Q432 452 432 395Q432 353 415.5 324.0Q399 295 371.5 276.5Q344 258 312.0 246.5Q280 235 249 227L138 200Q141 166 155.0 131.5Q169 97 196.5 74.0Q224 51 265 51Q287 51 307.5 57.5Q328 64 349.5 78.5Q371 93 396 116L429 80Q420 69 404.5 53.5Q389 38 365.5 22.5Q342 7 312.0 -3.5Q282 -14 245 -14Q181 -14 136.5 17.0Q92 48 69.5 102.5Q47 157 47 225Q47 311 77.0 378.0Q107 445 161.0 483.0Q215 521 287 521ZM343 392Q343 412 337.0 428.5Q331 445 317.0 455.5Q303 466 280 466Q239 466 208.0 441.0Q177 416 159.5 369.5Q142 323 138 256L239 282Q274 291 297.0 304.0Q320 317 331.5 338.0Q343 359 343 392Z" transform="translate(168.6940 18.0000) scale(0.018000 -0.018000)"/><path d="M109 422Q110 439 103.5 448.0Q97 457 85 457Q74 457 54.0 451.5Q34 446 23 438L6 488Q22 496 40.0 503.5Q58 511 79.0 516.0Q100 521 123 521Q165 521 181.0 495.5Q197 470 192 425L165 190L173 188L210 326Q224 377 239.5 414.0Q255 451 275.5 474.5Q296 498 322.0 509.5Q348 521 382 521Q434 521 466.5 495.0Q499 469 514.5 421.5Q530 374 530 308Q530 230 511.5 170.0Q493 110 460.0 69.0Q427 28 384.0 7.0Q341 -14 292 -14Q255 -14 224.0 -5.0Q193 4 176 13L164 -167L257 -177L252 -224L95 -227L79 -215L97 61ZM369 452Q344 452 326.0 440.0Q308 428 292.5 398.5Q277 369 260.0 317.5Q243 266 220 188L186 70Q204 62 228.5 54.5Q253 47 285 47Q320 47 348.5 65.5Q377 84 397.5 118.0Q418 152 429.0 199.0Q440 246 440 301Q440 323 438.5 348.5Q437 374 430.5 398.0Q424 422 409.5 437.0Q395 452 369 452Z" transform="translate(177.2800 18.0000) scale(0.018000 -0.018000)"/><path d="M466 89Q465 64 470.5 55.0Q476 46 491 46Q501 46 514.0 52.5Q527 59 541 71L565 34Q554 24 536.0 12.5Q518 1 497.5 -6.5Q477 -14 456 -14Q431 -14 414.5 -3.0Q398 8 391.5 30.5Q385 53 388 86L405 275L398 276L376 193Q363 143 347.5 104.5Q332 66 312.0 39.5Q292 13 265.5 -0.5Q239 -14 203 -14Q150 -14 115.5 14.0Q81 42 64.5 90.5Q48 139 48 201Q48 272 65.0 330.5Q82 389 113.0 432.0Q144 475 186.0 498.0Q228 521 278 521Q313 521 343.5 513.0Q374 505 392 496L462 519L479 511ZM216 54Q240 54 257.5 64.0Q275 74 290.0 102.0Q305 130 322.0 181.0Q339 232 362 316L395 437Q376 447 345.0 454.0Q314 461 287 461Q254 461 227.0 442.5Q200 424 180.0 390.0Q160 356 149.5 309.0Q139 262 139 205Q139 153 147.0 119.5Q155 86 172.0 70.0Q189 54 216 54Z" transform="translate(187.6480 18.0000) scale(0.018000 -0.018000)"/><path d="M109 417Q110 438 104.0 447.5Q98 457 82 457Q72 457 58.0 452.5Q44 448 23 439L6 488Q17 494 36.5 502.0Q56 510 78.5 515.5Q101 521 121 521Q164 521 180.0 495.0Q196 469 191 419L177 275L183 274L238 403Q256 448 273.0 474.0Q290 500 309.0 510.5Q328 521 354 521Q380 521 397.0 511.5Q414 502 422.5 486.5Q431 471 431 453Q431 432 419.0 413.5Q407 395 384 385L361 411Q350 425 343.0 429.0Q336 433 327 433Q320 433 314.0 430.0Q308 427 301.5 418.0Q295 409 286.5 392.0Q278 375 265 346Q232 274 214.0 231.0Q196 188 187.5 163.0Q179 138 176.0 121.0Q173 104 171 82L163 0H89Z" transform="translate(197.9260 18.0000) scale(0.018000 -0.018000)"/><path d="M44 501 120 509 161 673H216L206 507H362L358 449H203L188 136Q186 94 202.0 72.5Q218 51 253 51Q282 51 306.5 66.5Q331 82 354 104L386 70Q369 47 345.0 27.5Q321 8 293.0 -3.0Q265 -14 232 -14Q159 -14 129.0 26.0Q99 66 102 133L116 449H36Z" transform="translate(206.2780 18.0000) scale(0.018000 -0.018000)"/><path d="M404 355Q409 408 398.0 428.0Q387 448 362 448Q343 448 330.5 437.5Q318 427 307.5 401.5Q297 376 282 331L174 0H93L109 417Q110 438 104.0 447.5Q98 457 82 457Q74 457 61.0 453.0Q48 449 23 439L6 488Q17 494 36.5 502.0Q56 510 78.5 515.5Q101 521 121 521Q164 521 180.0 495.0Q196 469 191 419L166 152L173 150L237 367Q253 421 272.0 455.0Q291 489 317.0 505.0Q343 521 381 521Q422 521 445.0 502.5Q468 484 476.0 447.5Q484 411 478 357L456 149L464 147L536 367Q554 421 572.5 455.0Q591 489 617.0 505.0Q643 521 681 521Q726 521 749.5 502.0Q773 483 780.0 444.5Q787 406 782 348L760 90Q758 65 762.5 55.5Q767 46 783 46Q794 46 809.5 52.5Q825 59 839 70L862 35Q851 25 831.0 13.5Q811 2 788.5 -6.0Q766 -14 745 -14Q715 -14 698.5 -3.0Q682 8 676.0 26.5Q670 45 672 69L697 355Q702 408 694.0 428.0Q686 448 660 448Q644 448 633.0 440.0Q622 432 610.5 407.0Q599 382 580 331L459 0H375Z" transform="translate(213.5140 18.0000) scale(0.018000 -0.018000)"/><path d="M287 521Q362 521 397.0 486.5Q432 452 432 395Q432 353 415.5 324.0Q399 295 371.5 276.5Q344 258 312.0 246.5Q280 235 249 227L138 200Q141 166 155.0 131.5Q169 97 196.5 74.0Q224 51 265 51Q287 51 307.5 57.5Q328 64 349.5 78.5Q371 93 396 116L429 80Q420 69 404.5 53.5Q389 38 365.5 22.5Q342 7 312.0 -3.5Q282 -14 245 -14Q181 -14 136.5 17.0Q92 48 69.5 102.5Q47 157 47 225Q47 311 77.0 378.0Q107 445 161.0 483.0Q215 521 287 521ZM343 392Q343 412 337.0 428.5Q331 445 317.0 455.5Q303 466 280 466Q239 466 208.0 441.0Q177 416 159.5 369.5Q142 323 138 256L239 282Q274 291 297.0 304.0Q320 317 331.5 338.0Q343 359 343 392Z" transform="translate(229.2820 18.0000) scale(0.018000 -0.018000)"/><path d="M582 35Q571 25 551.0 13.5Q531 2 508.5 -6.0Q486 -14 465 -14Q426 -14 407.0 7.0Q388 28 392 69L417 355Q422 408 412.5 428.0Q403 448 378 448Q356 448 341.5 435.0Q327 422 316.0 396.5Q305 371 291 331L174 0H93L109 417Q110 439 104.0 448.0Q98 457 82 457Q72 457 58.0 452.5Q44 448 23 439L6 488Q17 494 36.5 502.0Q56 510 78.5 515.5Q101 521 121 521Q164 521 180.0 495.0Q196 469 191 419L166 152L173 150L246 367Q264 420 284.5 454.0Q305 488 333.0 504.5Q361 521 399 521Q444 521 468.0 502.0Q492 483 499.5 444.5Q507 406 502 348L480 89Q478 65 482.5 55.5Q487 46 503 46Q514 46 529.5 52.5Q545 59 559 70Z" transform="translate(237.8680 18.0000) scale(0.018000 -0.018000)"/><path d="M44 501 120 509 161 673H216L206 507H362L358 449H203L188 136Q186 94 202.0 72.5Q218 51 253 51Q282 51 306.5 66.5Q331 82 354 104L386 70Q369 47 345.0 27.5Q321 8 293.0 -3.0Q265 -14 232 -14Q159 -14 129.0 26.0Q99 66 102 133L116 449H36Z" transform="translate(248.5960 18.0000) scale(0.018000 -0.018000)"/></g>
  <g fill="#1f4d2e" id="text2" aria-hidden="true"><path d="M7 0V73L47 81Q66 85 76.0 96.0Q86 107 96 135L300 701H461L665 131Q676 103 684.0 93.0Q692 83 712 79L747 72V0H424V73L471 79Q489 82 493.5 94.0Q498 106 490 130L463 212H226L199 134Q192 113 194.0 98.0Q196 83 224 78L268 71V0ZM253 293H439L351 571H347Z" transform="translate(8.8750 124.0000) scale(0.120000 -0.120000)"/><path d="M325 -14Q271 -14 222.5 3.5Q174 21 141 48L127 -6H59L43 213L120 225Q132 191 150.0 164.0Q168 137 191.5 118.0Q215 99 243.5 89.0Q272 79 304 79Q340 79 363.5 89.0Q387 99 398.5 118.0Q410 137 410 162Q410 192 395.5 212.5Q381 233 348.5 249.0Q316 265 265 281Q220 295 182.0 312.5Q144 330 116.5 354.5Q89 379 73.5 415.0Q58 451 58 501Q58 529 66.5 558.5Q75 588 92.5 616.0Q110 644 138.5 666.5Q167 689 206.5 702.0Q246 715 299 715Q348 715 385.0 702.0Q422 689 453 665L466 715H529L551 500L474 485Q456 539 429.5 569.5Q403 600 372.0 613.0Q341 626 308 626Q266 626 239.0 604.5Q212 583 212 544Q212 515 227.5 495.5Q243 476 274.5 461.5Q306 447 352 432Q401 417 441.5 398.5Q482 380 511.5 355.0Q541 330 556.5 295.0Q572 260 572 210Q572 156 551.5 114.5Q531 73 496.0 44.0Q461 15 417.0 0.5Q373 -14 325 -14Z" transform="translate(97.4750 124.0000) scale(0.120000 -0.120000)"/><path d="M601 -14Q555 -14 524.0 1.0Q493 16 472.0 45.0Q451 74 437 116L400 235Q391 258 382.5 275.5Q374 293 360.0 303.0Q346 313 323 313Q314 313 306.0 312.5Q298 312 291 311V130Q291 107 297.0 95.0Q303 83 327 78L374 71V0H49V71L92 79Q111 82 117.0 91.5Q123 101 123 130V576Q123 600 117.0 610.0Q111 620 90 623L49 630V701H353Q414 701 465.5 691.5Q517 682 554.5 661.0Q592 640 612.5 606.5Q633 573 633 524Q633 488 619.0 460.5Q605 433 582.5 412.5Q560 392 533.0 378.0Q506 364 480.0 355.5Q454 347 434 344V340Q490 331 522.0 309.5Q554 288 570 242L596 175Q609 144 618.5 123.5Q628 103 641.0 93.0Q654 83 675 83Q685 83 695.0 85.0Q705 87 718 90L732 30Q710 11 677.0 -1.5Q644 -14 601 -14ZM331 384Q372 384 399.5 398.5Q427 413 441.5 441.5Q456 470 456 509Q456 549 440.5 573.0Q425 597 397.5 608.0Q370 619 333 619H292V385Q304 384 314.0 384.0Q324 384 331 384Z" transform="translate(169.0350 124.0000) scale(0.120000 -0.120000)"/></g>
</svg>
